<?xml version="1.0" encoding="utf-8"?>
<!-- Generator: Adobe Illustrator 27.5.0, SVG Export Plug-In . SVG Version: 6.00 Build 0)  -->
<svg version="1.1" xmlns="http://www.w3.org/2000/svg" xmlns:xlink="http://www.w3.org/1999/xlink" x="0px" y="0px"
	 viewBox="0 0 1122 1122" style="enable-background:new 0 0 1122 1122;" xml:space="preserve">
<g id="BG">
	<rect style="fill:#E6DAF5" width="1122" height="1122"/>
</g>
<g id="Object">
	<g>
		<path style="fill:#E26B47;" d="M728.973,751.386c0,0-8.605,113.74-25.38,144.307c-1.041,1.897-19.327,4.938-17.432-2.813
			c1.895-7.751,13.541-1.038,12.484-18.449s3.872-93.396-7.894-123.332L728.973,751.386z"/>
		<path d="M780.474,660.695c2.646-2.847,8.404-3.497,11.933-4.959c4.901-2.03,9.63-4.513,13.999-7.528
			c11.109-7.667,19.867-19.3,21.531-32.96c1.562-12.829,5.225-26.439,13.732-36.458c0.046-0.054,0.104-0.091,0.159-0.132
			c0.026-0.029,0.04-0.06,0.071-0.087c4.873-4.32,13.386-5.079,19.333-2.946c8.528,3.06,11.868,11.233,12.753,19.665
			c1.464,13.943-2.916,27.836-11.413,38.902c-14.457,18.826-37.759,29.049-59.898,35.627c-5.979,1.776-14.141,5.797-19.988,1.941
			C778.997,669.325,777.16,664.261,780.474,660.695z"/>
		<g>
			<g>
				<path d="M406.233,211.08c4.79,2.113,9.125,5.715,12.951,9.202c10.54,9.609,18.416,21.676,24.537,34.477
					c0.537,1.123-3.81,3.246-4.348,2.121c-6.166-12.895-14.131-25.197-24.875-34.764c-3.638-3.24-7.749-6.587-12.254-8.575
					C401.33,213.139,404.944,210.512,406.233,211.08L406.233,211.08z"/>
			</g>
			<g>
				<path d="M396.144,219.778c16.003,7.319,33.149,20.188,38.763,37.458c0.795,2.447-3.341,4.687-4.25,1.892
					c-5.245-16.135-21.751-28.253-36.679-35.079C391.439,222.888,393.788,218.701,396.144,219.778L396.144,219.778z"/>
			</g>
			<g>
				<path d="M393.245,232.14c11.886,4.723,31.187,14.377,32.036,28.965c0.073,1.26-4.318,2.429-4.334,2.151
					c-0.848-14.565-19.876-24.053-31.746-28.769C388.835,234.34,392.089,231.681,393.245,232.14L393.245,232.14z"/>
			</g>
			<g>
				<path d="M389.053,240.94c9.226,2.563,29.185,8.817,28.065,21.198c-0.128,1.413-3.249,4.88-3.015,2.286
					c0.648-7.168-8.734-11.734-14.096-14.258c-4.235-1.994-8.679-3.682-13.193-4.936
					C385.468,244.855,387.387,240.477,389.053,240.94L389.053,240.94z"/>
			</g>
			<g>
				<path d="M382.71,250.216c8.7,1.076,25.644,4.295,27.135,15.001c0.288,2.069-4.307,3.482-4.571,1.586
					c-1.362-9.779-17.11-12.474-25.102-13.463C377.375,252.993,380.862,249.987,382.71,250.216L382.71,250.216z"/>
			</g>
		</g>
		<path style="fill:#E26B47;" d="M746.322,644.374c0,0,75.239-4.248,64.398,94.075c-0.031,0.277-0.078,0.556-0.139,0.828
			l-37.582,166.144c-0.969,4.286-5.555,6.719-9.619,5.047c-0.067-0.027-0.134-0.056-0.202-0.084
			c-6.788-2.868-0.988-3.865,2.818-16.464c3.805-12.599,6.128-124.855-6.51-136.402c-12.639-11.546-44.295,41.837-128.521,33.563
			c-55.739-5.475-83.966-17.449-96.684-24.922c-4.367-2.566-9.94,0.047-10.702,5.054l-19.837,117.289
			c-0.303,1.988-0.918,9.681-2.838,12.594c-2.136,3.24-8.74,9.311-14.499,2.978c-8.758-9.631,8.653-10.689,7.641-19.392
			c-1.013-8.703,10.951-127.783,1.225-137.409c-9.726-9.626-31.098-25.965-33.941-14.339c-2.843,11.626-5.983,152.916-5.978,153.883
			c0.005,0.968-12.599,18.862-18.314,13.641c-12.639-11.546,4.798-7.766,4.753-16.474c-0.045-8.708-12.731-216.682-12.731-216.682
			s-13.583-194.423-15.614-212.797c-1.706-15.436-14.583-78.615-18.659-98.429c-0.703-3.417-3.769-5.822-7.256-5.685
			c-26.341,1.035-130.413,2.748-137.362-34.381c0,0-3.925-10.624,6.708-12.614s89.029,1.475,104.471-6.345
			c15.442-7.821,67.457-53.568,82.006-46.87c14.549,6.698,45.116,23.474,36.677,75.769c-8.227,50.987,1.801,252.733,2.307,262.792
			c0.012,0.24,0.013,0.474,0.001,0.713c-0.242,4.889-1.91,63.55,57.437,63.243C601.703,652.378,746.322,644.374,746.322,644.374z"/>
		<path d="M427.492,319.341c3.612-10.81,10.132-21.105,21.762-24.161c2.619-0.688,5.273-0.963,7.975-0.96
			c0.115,0,0.203,0.008,0.284,0.017c0.063-0.009,0.127-0.019,0.181-0.021c6.991-0.312,12.396,7.037,15.384,12.36
			c5.749,10.239,8.286,22.252,10.052,33.739c2.178,14.17,2.967,28.534,3.397,42.85c0.599,19.947,1.029,38.959,12.139,56.302
			c7.531,11.756,18.444,20.638,26.244,32.116c5.846,8.602,10.597,19.871,7.209,30.325c-6.751,20.829-35.864,17.338-51.315,10.938
			c-7.649-3.168-14.164-7.039-19.682-13.213c-4.826-5.4-8.738-11.597-12.141-17.969c-8.775-16.435-14.524-34.505-18.806-52.58
			c-4.676-19.734-7.572-39.992-8.169-60.274C421.522,352.352,422.23,335.087,427.492,319.341z"/>
		<path d="M417.389,286.409c4.368-0.212,4.905,7.963,4.915,10.744c0.011,3.009-0.402,10.716-4.751,10.926
			c-4.396,0.213-4.856-7.995-4.916-10.744C412.672,294.328,413.014,286.621,417.389,286.409z"/>
		<path d="M248.665,308.132c4.061-6.729,17.004-6.28,23.457-6.331c10.12-1.832,22.461-3.151,32.185,0.767
			c4.706,1.896,6.796,4.74,7.902,9.519c1.356,5.86,2.688,11.601,2.625,17.672c-0.064,6.233-1.574,13.396-7.7,16.391
			c-6.194,3.028-14.524,1.467-20.881-0.116c-13.879-3.457-34.929-12.731-38.061-28.598
			C247.728,315.082,247.283,310.421,248.665,308.132z"/>
		<path style="fill:#EEC130;" d="M395.293,534.356c7.732-1.653,15.465-3.305,23.197-4.958c0.256-0.055,1.476,0.131,2.128,0.447
			c19.481-0.101,38.962-0.201,58.443-0.302c0.787-0.004,3.812,0.968,3.052,2.322c-4.371,7.792-11.363,15.079-19.542,18.791
			c-17.349,7.873-33.37-4.326-43.963-17.419c-2.742,3.275-5.484,6.549-8.226,9.824c-0.297,0.355-1.578,0.037-2.259-0.368
			c-0.054-0.021-0.101-0.043-0.137-0.064c-4.206-2.559-8.413-5.117-12.619-7.676C395.122,534.802,394.848,534.451,395.293,534.356z"
			/>
	</g>
</g>
</svg>
